<svg viewBox="0 0 1000 650" width="100%" height="100%" xmlns="http://www.w3.org/2000/svg" style="background:#f8fafc; font-family:system-ui, -apple-system, sans-serif;">
  <!-- Browser Frame Header -->
  <rect x="0" y="0" width="1000" height="42" rx="8" fill="#e2e8f0" />
  <circle cx="20" cy="21" r="6" fill="#ef4444" />
  <circle cx="40" cy="21" r="6" fill="#f59e0b" />
  <circle cx="60" cy="21" r="6" fill="#10b981" />
  <rect x="100" y="10" width="800" height="22" rx="4" fill="#ffffff" />
  <text x="120" y="25" font-size="11" fill="#64748b" font-weight="500">https://github.com/BrianGator/Class-Test-Django-Python-SQL/onlinecourse/admin/</text>

  <!-- Django Green Header -->
  <rect x="0" y="42" width="1000" height="65" fill="#124f38" />
  <text x="25" y="81" font-size="24" fill="#f5f5f5" font-weight="700">Django administration</text>
  <text x="820" y="65" font-size="11" fill="#a4f4d6" font-weight="bold">WELCOME, BRIAN_MCCARTHY</text>
  <text x="820" y="85" font-size="11" fill="#ffffff">VIEW SITE / CHANGE PASSWORD / LOG OUT</text>

  <!-- Left Sidebar (Navigation & Quick actions) -->
  <rect x="0" y="107" width="260" height="543" fill="#ffffff" stroke-right="1" stroke="#e2e8f0" />
  
  <rect x="0" y="107" width="260" height="40" fill="#124f38" opacity="0.1" />
  <text x="20" y="132" font-size="13" fill="#124f38" font-weight="bold">RECENT ACTIONS</text>
  
  <!-- Recent Log Rows -->
  <circle cx="25" cy="170" r="5" fill="#10b981" />
  <text x="40" y="174" font-size="11" fill="#334155" font-weight="bold">Added Course: Django Full-Stack</text>
  <text x="40" y="188" font-size="10" fill="#94a3b8">OnlineCourse</text>

  <circle cx="25" cy="220" r="5" fill="#3b82f6" />
  <text x="40" y="224" font-size="11" fill="#334155" font-weight="bold">Changed Question 1 in Admin</text>
  <text x="40" y="238" font-size="10" fill="#94a3b8">OnlineCourse</text>

  <circle cx="25" cy="270" r="5" fill="#10b981" />
  <text x="40" y="274" font-size="11" fill="#334155" font-weight="bold">Added 4 new Choices</text>
  <text x="40" y="288" font-size="10" fill="#94a3b8">OnlineCourse</text>

  <!-- Main Workspace -->
  <rect x="280" y="130" width="690" height="490" rx="8" fill="#ffffff" stroke="1" stroke="#e2e8f0" />
  <rect x="280" y="130" width="690" height="45" rx="8" fill="#1e293b" />
  <text x="300" y="158" font-size="14" fill="#ffffff" font-weight="bold">Site Administration Panel Console</text>

  <!-- SECTION 1: Authentication and Authorization -->
  <rect x="300" y="195" width="650" height="142" rx="6" fill="#f8fafc" stroke="1" fill-opacity="0.9" stroke="#cbd5e1" />
  <rect x="300" y="195" width="650" height="34" rx="4" fill="#417690" />
  <text x="315" y="217" font-size="12" fill="#ffffff" font-weight="bold">AUTHENTICATION AND AUTHORIZATION</text>

  <!-- Row 1: Groups -->
  <text x="320" y="260" font-size="12" fill="#3b82f6" font-weight="bold">Groups</text>
  <rect x="850" y="246" width="40" height="20" rx="3" fill="#264b5d" />
  <text x="858" y="260" font-size="10" fill="#ffffff" font-weight="bold">+ Add</text>
  <rect x="900" y="246" width="40" height="20" rx="3" fill="#e2e8f0" />
  <text x="906" y="260" font-size="10" fill="#417690" font-weight="bold">Change</text>
  <line x1="320" y1="280" x2="930" y2="280" stroke="#cbd5e1" stroke-dasharray="2,2" />

  <!-- Row 2: Users -->
  <text x="320" y="305" font-size="12" fill="#3b82f6" font-weight="bold">Users</text>
  <rect x="850" y="291" width="40" height="20" rx="3" fill="#264b5d" />
  <text x="858" y="305" font-size="10" fill="#ffffff" font-weight="bold">+ Add</text>
  <rect x="900" y="291" width="40" height="20" rx="3" fill="#e2e8f0" />
  <text x="906" y="305" font-size="10" fill="#417690" font-weight="bold">Change</text>

  <!-- SECTION 2: OnlineCourse -->
  <rect x="300" y="358" width="650" height="235" rx="6" fill="#f8fafc" stroke="1" fill-opacity="0.9" stroke="#cbd5e1" />
  <rect x="300" y="358" width="650" height="34" rx="4" fill="#124f38" />
  <text x="315" y="380" font-size="12" fill="#ffffff" font-weight="bold">ONLINECOURSE MODELS MANAGEMENT</text>

  <!-- Row: Courses -->
  <text x="320" y="422" font-size="12" fill="#10b981" font-weight="bold">Courses</text>
  <rect x="850" y="408" width="40" height="20" rx="3" fill="#124f38" />
  <text x="858" y="422" font-size="10" fill="#ffffff" font-weight="bold">+ Add</text>
  <rect x="900" y="408" width="40" height="20" rx="3" fill="#e2e8f0" />
  <text x="906" y="422" font-size="10" fill="#124f38" font-weight="bold">Change</text>
  <line x1="320" y1="440" x2="930" y2="440" stroke="#cbd5e1" stroke-dasharray="2,2" />

  <!-- Row: Lessons -->
  <text x="320" y="462" font-size="12" fill="#10b981" font-weight="bold">Lessons</text>
  <rect x="850" y="448" width="40" height="20" rx="3" fill="#124f38" />
  <text x="858" y="462" font-size="10" fill="#ffffff" font-weight="bold">+ Add</text>
  <rect x="900" y="448" width="40" height="20" rx="3" fill="#e2e8f0" />
  <text x="906" y="462" font-size="10" fill="#124f38" font-weight="bold">Change</text>
  <line x1="320" y1="480" x2="930" y2="480" stroke="#cbd5e1" stroke-dasharray="2,2" />

  <!-- Row: Questions -->
  <text x="320" y="502" font-size="12" fill="#10b981" font-weight="bold">Questions</text>
  <rect x="850" y="488" width="40" height="20" rx="3" fill="#124f38" />
  <text x="858" y="502" font-size="10" fill="#ffffff" font-weight="bold">+ Add</text>
  <rect x="900" y="488" width="40" height="20" rx="3" fill="#e2e8f0" />
  <text x="906" y="502" font-size="10" fill="#124f38" font-weight="bold">Change</text>
  <line x1="320" y1="520" x2="930" y2="520" stroke="#cbd5e1" stroke-dasharray="2,2" />

  <!-- Row: Choices -->
  <text x="320" y="542" font-size="12" fill="#10b981" font-weight="bold">Choices</text>
  <rect x="850" y="528" width="40" height="20" rx="3" fill="#124f38" />
  <text x="858" y="542" font-size="10" fill="#ffffff" font-weight="bold">+ Add</text>
  <rect x="900" y="528" width="40" height="20" rx="3" fill="#e2e8f0" />
  <text x="906" y="542" font-size="10" fill="#124f38" font-weight="bold">Change</text>
  <line x1="320" y1="560" x2="930" y2="560" stroke="#cbd5e1" stroke-dasharray="2,2" />

  <!-- Row: Submissions -->
  <text x="320" y="582" font-size="12" fill="#10b981" font-weight="bold">Submissions</text>
  <rect x="850" y="568" width="40" height="20" rx="3" fill="#124f38" />
  <text x="858" y="582" font-size="10" fill="#ffffff" font-weight="bold">+ Add</text>
  <rect x="900" y="568" width="40" height="20" rx="3" fill="#e2e8f0" />
  <text x="906" y="582" font-size="10" fill="#124f38" font-weight="bold">Change</text>

  <!-- Author Tag Core -->
  <rect x="0" y="620" width="1000" height="30" fill="#1e293b" />
  <text x="20" y="639" font-size="10" fill="#94a3b8" font-weight="bold">DEVELOPMENT ID: 03-admin-site</text>
  <text x="830" y="639" font-size="10" fill="#3b82f6" font-weight="extrabold" letter-spacing="1">WRITTEN BY BRIAN MCCARTHY</text>
</svg>
