<svg viewBox="0 0 1000 650" width="100%" height="100%" xmlns="http://www.w3.org/2000/svg" style="background:#f1f5f9; font-family:system-ui, -apple-system, sans-serif;">
  <!-- Browser Frame Header -->
  <rect x="0" y="0" width="1000" height="42" rx="8" fill="#e2e8f0" />
  <circle cx="20" cy="21" r="6" fill="#ef4444" />
  <circle cx="40" cy="21" r="6" fill="#f59e0b" />
  <circle cx="60" cy="21" r="6" fill="#10b981" />
  <rect x="100" y="10" width="800" height="22" rx="4" fill="#ffffff" />
  <text x="120" y="25" font-size="11" fill="#64748b" font-weight="500">https://github.com/BrianGator/Class-Test-Django-Python-SQL/onlinecourse/templates/exam_result_bootstrap.html</text>

  <!-- App Header -->
  <rect x="0" y="42" width="1000" height="60" fill="#0f172a" />
  <text x="25" y="78" font-size="18" fill="#ffffff" font-weight="800" letter-spacing="1">CLASS-TEST-DJANGO-PYTHON-SQL</text>
  <rect x="750" y="58" width="220" height="28" rx="4" fill="#3b82f6" />
  <text x="860" y="76" font-size="11" fill="#ffffff" font-weight="extrabold" text-anchor="middle" letter-spacing="1">BRIAN MCCARTHY (STUDENT)</text>

  <!-- Main Grid Content Area -->
  <rect x="40" y="130" width="920" height="465" rx="10" fill="#ffffff" stroke-width="1" stroke="#e2e8f0" />

  <!-- Congratulations Success Alert Alert Box -->
  <rect x="70" y="160" width="860" height="110" rx="8" fill="#d1fae5" stroke-width="1" stroke="#34d399" />
  <path d="M95,200 L110,215 L140,185" stroke="#059669" stroke-width="4" fill="none" stroke-linecap="round" stroke-linejoin="round" />
  <text x="165" y="200" font-size="22" fill="#065f46" font-weight="bold">Congratulations, You Passed! 🎉</text>
  <text x="165" y="222" font-size="13" fill="#047857">You scored a total percentage of <tspan font-weight="bold">88.2%</tspan>. You have successfully certified your competencies.</text>
  
  <rect x="700" y="180" width="180" height="70" rx="6" fill="#059669" />
  <text x="790" y="205" font-size="11" fill="#a7f3d0" font-weight="bold" text-anchor="middle">SUBMISSION ID</text>
  <text x="790" y="235" font-size="20" fill="#ffffff" font-weight="extrabold" text-anchor="middle">SUB#2026-05</text>

  <!-- Scores Metrics Column Breakdown -->
  <text x="70" y="305" font-size="14" fill="#1e293b" font-weight="bold">COMPREHENSION CRITERIA METRICS</text>
  <rect x="70" y="315" width="265" height="85" rx="6" fill="#f8fafc" stroke-width="1" stroke="#e2e8f0" />
  <text x="90" y="343" font-size="11" fill="#64748b" font-weight="bold">YOUR SCORE SUM</text>
  <text x="90" y="378" font-size="26" fill="#1e293b" font-weight="extrabold">15 / 17</text>
  <text x="180" y="375" font-size="12" fill="#64748b">Credits Gained</text>

  <rect x="365" y="315" width="265" height="85" rx="6" fill="#f8fafc" stroke-width="1" stroke="#e2e8f0" />
  <text x="385" y="343" font-size="11" fill="#64748b" font-weight="bold">TOTAL MINIMUM LIMIT</text>
  <text x="385" y="378" font-size="26" fill="#ef4444" font-weight="extrabold">13.6</text>
  <text x="465" y="375" font-size="12" fill="#64748b">Required Points (80%)</text>

  <rect x="665" y="315" width="265" height="85" rx="6" fill="#ebf5ff" stroke-width="1" stroke="#bfdbfe" />
  <text x="685" y="343" font-size="11" fill="#2563eb" font-weight="bold">EVALUATION STATEMENT</text>
  <text x="685" y="378" font-size="22" fill="#1e3a8a" font-weight="extrabold">SUCCESS VERDICT</text>

  <!-- Course Test Question Log Results Rows -->
  <text x="70" y="430" font-size="13" fill="#64748b" font-weight="bold">CORRECT KEY MATCH DIAGNOSTICS</text>
  
  <rect x="70" y="445" width="860" height="42" rx="4" fill="#f8fafc" stroke-width="1" stroke="#e2e8f0" />
  <circle cx="95" cy="466" r="8" fill="#10b981" />
  <path d="M91,466 L94,469 L99,463" stroke="#ffffff" stroke-width="2" fill="none" />
  <text x="120" y="470" font-size="12" fill="#1e293b" font-weight="medium">Q1: Choice Model Relationship in Django models.py</text>
  <text x="750" y="470" font-size="11" font-weight="bold" fill="#059669">Correct Selection Match (+2 Pts)</text>

  <rect x="70" y="495" width="860" height="42" rx="4" fill="#f8fafc" stroke-width="1" stroke="#e2e8f0" />
  <circle cx="95" cy="516" r="8" fill="#10b981" />
  <path d="M91,516 L94,519 L99,513" stroke="#ffffff" stroke-width="2" fill="none" />
  <text x="120" y="520" font-size="12" fill="#1e293b" font-weight="medium">Q2: Python reference counts pair with generational cyclic garbage collection</text>
  <text x="750" y="520" font-size="11" font-weight="bold" fill="#059669">Correct Selection Match (+2 Pts)</text>

  <rect x="70" y="545" width="860" height="42" rx="4" fill="#f8fafc" stroke-width="1" stroke="#e2e8f0" />
  <circle cx="95" cy="566" r="8" fill="#10b981" />
  <path d="M91,566 L94,569 L99,563" stroke="#ffffff" stroke-width="2" fill="none" />
  <text x="120" y="570" font-size="12" fill="#1e293b" font-weight="medium">Q3: Relational Transactions and ACID properties (COMMIT/ROLLBACK)</text>
  <text x="750" y="570" font-size="11" font-weight="bold" fill="#059669">Correct Selection Match (+2 Pts)</text>

  <!-- Footer Credits -->
  <rect x="0" y="620" width="1000" height="30" fill="#1e293b" />
  <text x="20" y="639" font-size="10" fill="#94a3b8" font-weight="bold">DEVELOPMENT ID: 07-final</text>
  <text x="830" y="639" font-size="10" fill="#3b82f6" font-weight="extrabold" letter-spacing="1">WRITTEN BY BRIAN MCCARTHY</text>
</svg>
